<svg width="20" height="20" viewBox="0 0 20 20" fill="none" xmlns="http://www.w3.org/2000/svg">
<path fill-rule="evenodd" clip-rule="evenodd" d="M3.71496 7.6798C2.43356 8.9612 2.43355 11.0388 3.71496 12.3202L7.67946 16.2847C8.96087 17.5661 11.0384 17.5661 12.3198 16.2847L16.2843 12.3202C17.5658 11.0388 17.5658 8.9612 16.2843 7.6798L12.3198 3.7153C11.0384 2.43389 8.96087 2.43389 7.67946 3.7153L3.71496 7.6798ZM4.81982 11.2153C4.1486 10.5441 4.1486 9.45586 4.81982 8.78465L8.78431 4.82015C9.45553 4.14894 10.5438 4.14894 11.215 4.82015L15.1795 8.78465C15.8507 9.45586 15.8507 10.5441 15.1795 11.2153L11.215 15.1798C10.5438 15.851 9.45553 15.851 8.78431 15.1798L7.7809 14.1764V12.4999C7.7809 11.5507 8.55041 10.7812 9.49965 10.7812H11.6135L8.95723 13.4375H11.1669L14.6045 9.99994L11.1671 6.5625H8.95735L11.6135 9.21869H9.49965C7.68747 9.21869 6.2184 10.6878 6.2184 12.4999V12.6139L4.81982 11.2153Z" fill="#3C3C43" fill-opacity="0.8"/>
</svg>
