<svg width="16" height="16" viewBox="0 0 16 16" fill="none" xmlns="http://www.w3.org/2000/svg">
<rect width="16" height="16" rx="3" fill="#FDDB32"/>
<path d="M4.88935 12.8887V11.3364C4.88935 11.21 4.79096 11.1117 4.6645 11.1117H3.11158C2.98509 11.1117 2.88672 11.21 2.88672 11.3364V12.8887C2.88672 13.0151 2.98509 13.1135 3.11158 13.1135H4.6645C4.79096 13.1135 4.88935 13.0151 4.88935 12.8887Z" fill="#191E3B"/>
<path d="M13.1196 11.5538V3.90501C13.1196 3.33605 12.6629 2.87952 12.0937 2.87952H4.44152C4.28693 2.87952 4.1956 2.93573 4.09722 3.03404L2.57241 4.57223C2.45998 4.68461 2.53727 4.85319 2.70592 4.85319H9.62732L5.33393 9.14466C5.25663 9.22192 5.2215 9.29918 5.2215 9.42562V10.5565C5.2215 10.6899 5.31287 10.7812 5.44635 10.7812H6.57768C6.71117 10.7812 6.78847 10.7461 6.85873 10.6688L11.1521 6.37732V13.2957C11.1521 13.4642 11.3207 13.5415 11.4332 13.4291L12.9721 11.898C13.0634 11.7996 13.1196 11.7083 13.1196 11.5538Z" fill="#191E3B"/>
</svg>
